
  <svg xmlns="http://www.w3.org/2000/svg" xmlns:xlink="http://www.w3.org/1999/xlink" width="500" zoomAndPan="magnify" viewBox="0 0 750 149.999998" height="200" preserveAspectRatio="xMidYMid meet" version="1.0"><defs><g/><clipPath id="9bcacd074c"><path d="M 64 2 L 97 2 L 97 59 L 64 59 Z M 64 2 " clip-rule="nonzero"/></clipPath><clipPath id="e2adfbbc58"><path d="M -30.421875 26.816406 L 133.105469 -32.648438 L 192.566406 130.875 L 29.042969 190.339844 Z M -30.421875 26.816406 " clip-rule="nonzero"/></clipPath><clipPath id="9bcd0c39ad"><path d="M -30.421875 26.816406 L 133.105469 -32.648438 L 192.566406 130.875 L 29.042969 190.339844 Z M -30.421875 26.816406 " clip-rule="nonzero"/></clipPath><clipPath id="df991720f4"><path d="M -30.421875 26.816406 L 133.105469 -32.648438 L 192.566406 130.875 L 29.042969 190.339844 Z M -30.421875 26.816406 " clip-rule="nonzero"/></clipPath><clipPath id="3358ec7517"><path d="M 23 23 L 80 23 L 80 55 L 23 55 Z M 23 23 " clip-rule="nonzero"/></clipPath><clipPath id="b132a578d6"><path d="M -30.421875 26.816406 L 133.105469 -32.648438 L 192.566406 130.875 L 29.042969 190.339844 Z M -30.421875 26.816406 " clip-rule="nonzero"/></clipPath><clipPath id="81c024010c"><path d="M -30.421875 26.816406 L 133.105469 -32.648438 L 192.566406 130.875 L 29.042969 190.339844 Z M -30.421875 26.816406 " clip-rule="nonzero"/></clipPath><clipPath id="33bee6c2cc"><path d="M -30.421875 26.816406 L 133.105469 -32.648438 L 192.566406 130.875 L 29.042969 190.339844 Z M -30.421875 26.816406 " clip-rule="nonzero"/></clipPath><clipPath id="70ef831595"><path d="M 39 36 L 117 36 L 117 146 L 39 146 Z M 39 36 " clip-rule="nonzero"/></clipPath><clipPath id="122fffa0c4"><path d="M -30.421875 26.816406 L 133.105469 -32.648438 L 192.566406 130.875 L 29.042969 190.339844 Z M -30.421875 26.816406 " clip-rule="nonzero"/></clipPath><clipPath id="86fa7b1592"><path d="M -30.421875 26.816406 L 133.105469 -32.648438 L 192.566406 130.875 L 29.042969 190.339844 Z M -30.421875 26.816406 " clip-rule="nonzero"/></clipPath><clipPath id="0fe9fb8953"><path d="M -30.421875 26.816406 L 133.105469 -32.648438 L 192.566406 130.875 L 29.042969 190.339844 Z M -30.421875 26.816406 " clip-rule="nonzero"/></clipPath><clipPath id="69fee03a3e"><path d="M 78 58 L 110 58 L 110 74 L 78 74 Z M 78 58 " clip-rule="nonzero"/></clipPath><clipPath id="be652b93ec"><path d="M -30.421875 26.816406 L 133.105469 -32.648438 L 192.566406 130.875 L 29.042969 190.339844 Z M -30.421875 26.816406 " clip-rule="nonzero"/></clipPath><clipPath id="f2d3138c71"><path d="M -30.421875 26.816406 L 133.105469 -32.648438 L 192.566406 130.875 L 29.042969 190.339844 Z M -30.421875 26.816406 " clip-rule="nonzero"/></clipPath><clipPath id="3a165e34fa"><path d="M -30.421875 26.816406 L 133.105469 -32.648438 L 192.566406 130.875 L 29.042969 190.339844 Z M -30.421875 26.816406 " clip-rule="nonzero"/></clipPath><clipPath id="4f5e6ac98d"><path d="M 84 74 L 112 74 L 112 89 L 84 89 Z M 84 74 " clip-rule="nonzero"/></clipPath><clipPath id="81e250f2a7"><path d="M -30.421875 26.816406 L 133.105469 -32.648438 L 192.566406 130.875 L 29.042969 190.339844 Z M -30.421875 26.816406 " clip-rule="nonzero"/></clipPath><clipPath id="9e60a477ec"><path d="M -30.421875 26.816406 L 133.105469 -32.648438 L 192.566406 130.875 L 29.042969 190.339844 Z M -30.421875 26.816406 " clip-rule="nonzero"/></clipPath><clipPath id="0bbd3cf11a"><path d="M -30.421875 26.816406 L 133.105469 -32.648438 L 192.566406 130.875 L 29.042969 190.339844 Z M -30.421875 26.816406 " clip-rule="nonzero"/></clipPath><clipPath id="1abf456b3e"><path d="M 89 90 L 114 90 L 114 104 L 89 104 Z M 89 90 " clip-rule="nonzero"/></clipPath><clipPath id="5637d19f1a"><path d="M -30.421875 26.816406 L 133.105469 -32.648438 L 192.566406 130.875 L 29.042969 190.339844 Z M -30.421875 26.816406 " clip-rule="nonzero"/></clipPath><clipPath id="da6bae432c"><path d="M -30.421875 26.816406 L 133.105469 -32.648438 L 192.566406 130.875 L 29.042969 190.339844 Z M -30.421875 26.816406 " clip-rule="nonzero"/></clipPath><clipPath id="38ad8f9b12"><path d="M -30.421875 26.816406 L 133.105469 -32.648438 L 192.566406 130.875 L 29.042969 190.339844 Z M -30.421875 26.816406 " clip-rule="nonzero"/></clipPath><clipPath id="009c0b508d"><path d="M 95 107 L 116 107 L 116 119 L 95 119 Z M 95 107 " clip-rule="nonzero"/></clipPath><clipPath id="ab7a9b5d2b"><path d="M -30.421875 26.816406 L 133.105469 -32.648438 L 192.566406 130.875 L 29.042969 190.339844 Z M -30.421875 26.816406 " clip-rule="nonzero"/></clipPath><clipPath id="d31f12d1cf"><path d="M -30.421875 26.816406 L 133.105469 -32.648438 L 192.566406 130.875 L 29.042969 190.339844 Z M -30.421875 26.816406 " clip-rule="nonzero"/></clipPath><clipPath id="50ebbbdb45"><path d="M -30.421875 26.816406 L 133.105469 -32.648438 L 192.566406 130.875 L 29.042969 190.339844 Z M -30.421875 26.816406 " clip-rule="nonzero"/></clipPath></defs><g clip-path="url(#9bcacd074c)"><g clip-path="url(#e2adfbbc58)"><g clip-path="url(#9bcd0c39ad)"><g clip-path="url(#df991720f4)"><path fill="#acbd81" d="M 91.910156 3.25 C 96.816406 5.539062 98.941406 10.878906 90.246094 29.222656 C 81.550781 47.566406 67.605469 59.117188 65.597656 58.179688 C 63.589844 57.246094 63.875 39.183594 72.734375 20.777344 C 81.59375 2.375 87.167969 0.902344 91.910156 3.25 Z M 91.910156 3.25 " fill-opacity="1" fill-rule="nonzero"/></g></g></g></g><g clip-path="url(#3358ec7517)"><g clip-path="url(#b132a578d6)"><g clip-path="url(#81c024010c)"><g clip-path="url(#33bee6c2cc)"><path fill="#acbd81" d="M 24.210938 27.871094 C 21.921875 32.777344 23.722656 38.230469 42.167969 46.703125 C 60.617188 55.179688 78.726562 55.074219 79.660156 53.066406 C 80.597656 51.058594 68.78125 37.398438 50.167969 28.984375 C 31.554688 20.570312 26.335938 23.023438 24.210938 27.871094 Z M 24.210938 27.871094 " fill-opacity="1" fill-rule="nonzero"/></g></g></g></g><g clip-path="url(#70ef831595)"><g clip-path="url(#122fffa0c4)"><g clip-path="url(#86fa7b1592)"><g clip-path="url(#0fe9fb8953)"><path fill="#f47e5f" d="M 104.859375 144.253906 C 97.175781 147.046875 88.460938 144.476562 84.152344 137.714844 L 42.660156 75.039062 C 36.582031 65.957031 41.085938 53.394531 51.714844 49.527344 L 84.746094 37.515625 C 95.539062 33.59375 106.894531 40.386719 108.070312 51.253906 L 116.527344 125.9375 C 117.570312 133.890625 112.546875 141.460938 104.859375 144.253906 Z M 104.859375 144.253906 " fill-opacity="1" fill-rule="nonzero"/></g></g></g></g><g clip-path="url(#69fee03a3e)"><g clip-path="url(#be652b93ec)"><g clip-path="url(#f2d3138c71)"><g clip-path="url(#3a165e34fa)"><path fill="#f4e6c8" d="M 89.636719 65.734375 C 85.949219 67.8125 82.324219 70.058594 78.992188 73.121094 C 83.511719 73.328125 87.734375 72.71875 91.894531 71.945312 C 96.058594 71.171875 100.042969 69.910156 103.96875 68.484375 C 105.929688 67.769531 107.890625 67.054688 109.632812 66.238281 L 108.753906 58.226562 C 106.242188 58.953125 103.566406 59.742188 101.113281 60.632812 C 97.351562 62 93.546875 63.753906 89.636719 65.734375 Z M 89.636719 65.734375 " fill-opacity="0.5" fill-rule="nonzero"/></g></g></g></g><g clip-path="url(#4f5e6ac98d)"><g clip-path="url(#81e250f2a7)"><g clip-path="url(#9e60a477ec)"><g clip-path="url(#0bbd3cf11a)"><path fill="#f4e6c8" d="M 95.167969 80.941406 C 91.480469 83.023438 87.851562 85.265625 84.523438 88.328125 C 89.042969 88.535156 93.265625 87.925781 97.425781 87.15625 C 101.589844 86.382812 105.574219 85.117188 109.496094 83.691406 L 111.625 82.917969 L 110.628906 74.578125 C 109.320312 75.054688 107.953125 75.367188 106.644531 75.839844 C 102.882812 77.210938 99.015625 78.800781 95.167969 80.941406 Z M 95.167969 80.941406 " fill-opacity="0.5" fill-rule="nonzero"/></g></g></g></g><g clip-path="url(#1abf456b3e)"><g clip-path="url(#5637d19f1a)"><g clip-path="url(#da6bae432c)"><g clip-path="url(#38ad8f9b12)"><path fill="#f4e6c8" d="M 100.636719 95.984375 C 96.949219 98.066406 93.324219 100.3125 89.992188 103.371094 C 94.511719 103.582031 98.734375 102.972656 102.898438 102.199219 C 106.507812 101.441406 110.0625 100.519531 113.496094 99.269531 L 112.605469 90.707031 L 112.277344 90.824219 C 108.351562 92.253906 104.546875 94.007812 100.636719 95.984375 Z M 100.636719 95.984375 " fill-opacity="0.5" fill-rule="nonzero"/></g></g></g></g><g clip-path="url(#009c0b508d)"><g clip-path="url(#ab7a9b5d2b)"><g clip-path="url(#d31f12d1cf)"><g clip-path="url(#50ebbbdb45)"><path fill="#f4e6c8" d="M 95.523438 118.582031 C 100.042969 118.789062 104.265625 118.179688 108.425781 117.40625 C 110.835938 116.902344 113.019531 116.292969 115.371094 115.621094 L 114.375 107.28125 C 111.652344 108.457031 108.769531 109.691406 106.167969 111.191406 C 102.480469 113.273438 98.855469 115.519531 95.523438 118.582031 Z M 95.523438 118.582031 " fill-opacity="0.5" fill-rule="nonzero"/></g></g></g></g><g fill="#466060" fill-opacity="0.4"><g transform="translate(162.89465, 114.769788)"><g><path d="M 61.839844 -24.90625 C 58.546875 -19.453125 55.070312 -13.25 45.203125 -12.5 C 30.449219 -12.5 23.589844 -26.3125 23.496094 -39.472656 C 23.308594 -50.65625 28.097656 -56.574219 33.363281 -57.515625 C 34.207031 -57.703125 34.960938 -57.703125 35.710938 -57.703125 C 40.976562 -57.703125 44.265625 -54.039062 44.359375 -46.613281 C 44.453125 -39.660156 47.082031 -34.867188 54.601562 -34.867188 C 60.242188 -34.867188 65.222656 -38.625 64.375 -45.863281 C 63.8125 -51.03125 57.234375 -63.339844 36.371094 -63.339844 C 35.242188 -63.339844 34.019531 -63.339844 32.796875 -63.246094 C 15.414062 -62.214844 1.410156 -49.527344 1.410156 -30.917969 C 1.410156 -11.464844 16.632812 1.597656 34.773438 1.597656 C 50.277344 1.597656 63.71875 -7.988281 67.289062 -22.835938 L 67.289062 -22.929688 C 67.851562 -25.28125 66.347656 -26.691406 64.65625 -26.691406 C 63.625 -26.691406 62.589844 -26.125 61.839844 -24.90625 Z M 61.839844 -24.90625 "/></g></g></g><g fill="#466060" fill-opacity="0.4"><g transform="translate(236.46945, 114.769788)"><g><path d="M 29.226562 -14.660156 C 29.226562 -25.46875 29.132812 -48.960938 29.320312 -53.472656 C 29.414062 -58.644531 30.074219 -65.316406 26.503906 -65.316406 C 25.75 -65.316406 24.808594 -64.9375 23.589844 -64.28125 C 16.445312 -60.242188 12.3125 -59.207031 4.511719 -56.667969 C 0.65625 -55.449219 1.316406 -51.875 4.792969 -51.21875 C 6.953125 -50.75 7.988281 -48.492188 7.988281 -42.289062 L 7.988281 -14.660156 C 7.988281 -7.613281 1.410156 -6.859375 1.972656 -3.195312 C 2.539062 0.09375 15.882812 0.375 18.609375 0.375 C 21.332031 0.375 34.773438 0.28125 35.054688 -3.195312 C 35.429688 -7.046875 29.226562 -7.425781 29.226562 -14.660156 Z M 29.226562 -14.660156 "/></g></g></g><g fill="#466060" fill-opacity="0.4"><g transform="translate(278.190514, 114.769788)"><g><path d="M 27.441406 -43.511719 C 32.046875 -43.511719 33.644531 -37.683594 33.738281 -33.925781 C 33.925781 -26.691406 30.167969 -22.742188 25.5625 -22.742188 C 24.808594 -22.742188 24.058594 -22.835938 23.308594 -22.929688 C 22.273438 -25.375 21.613281 -28.097656 21.425781 -30.917969 C 21.144531 -35.429688 23.023438 -43.136719 27.441406 -43.511719 Z M 49.902344 -19.078125 C 47.269531 -15.035156 42.761719 -12.40625 38.34375 -12.125 C 32.515625 -12.125 28.195312 -14.753906 25.09375 -19.640625 C 26.691406 -18.890625 29.039062 -18.515625 31.671875 -18.515625 C 40.785156 -18.515625 53.753906 -22.929688 52.0625 -33.832031 C 51.21875 -39.660156 45.109375 -46.613281 29.414062 -46.613281 C 15.128906 -46.613281 1.410156 -38.625 1.410156 -22.835938 C 1.410156 -8.738281 13.722656 0.847656 28.289062 0.847656 C 40.691406 0.847656 51.5 -6.203125 54.414062 -17.011719 C 54.882812 -18.890625 53.378906 -20.207031 51.875 -20.207031 C 51.125 -20.207031 50.371094 -19.828125 49.902344 -19.078125 Z M 49.902344 -19.078125 "/></g></g></g><g fill="#466060" fill-opacity="0.4"><g transform="translate(338.89227, 114.769788)"><g><path d="M 55.917969 -14.660156 C 55.257812 -21.613281 55.351562 -21.613281 54.976562 -26.125 C 53.660156 -42.949219 42.476562 -47.269531 30.449219 -47.269531 C 24.152344 -47.269531 13.816406 -46.425781 9.492188 -41.257812 C 6.015625 -37.027344 9.023438 -31.484375 13.722656 -31.484375 C 13.910156 -31.484375 14.003906 -31.484375 14.097656 -31.484375 C 22.460938 -31.953125 20.957031 -41.726562 27.628906 -41.820312 C 29.792969 -41.820312 31.292969 -41.070312 32.515625 -39.28125 C 34.300781 -35.804688 32.609375 -31.671875 25 -29.792969 C 13.0625 -26.878906 1.972656 -24.527344 1.410156 -13.625 C 0.941406 -4.605469 9.492188 0.847656 19.828125 0.847656 C 20.582031 0.847656 21.425781 0.847656 22.273438 0.75 C 30.824219 0.09375 34.585938 -7.140625 29.507812 -7.332031 C 24.714844 -7.519531 22.929688 -11.371094 22.554688 -13.4375 C 21.898438 -16.917969 22.648438 -20.582031 26.691406 -23.308594 C 30.074219 -25.65625 33.082031 -26.3125 34.488281 -29.320312 L 34.679688 -14.660156 C 34.679688 -7.613281 35.617188 0.375 45.296875 0.375 C 48.023438 0.375 61.460938 0.28125 61.742188 -3.195312 C 62.027344 -7.046875 55.917969 -7.425781 55.917969 -14.660156 Z M 55.917969 -14.660156 "/></g></g></g><g fill="#466060" fill-opacity="0.4"><g transform="translate(406.829248, 114.769788)"><g><path d="M 61.554688 -14.660156 C 61.648438 -25.46875 61.648438 -26.972656 61.648438 -31.484375 C 61.648438 -40.222656 54.789062 -46.332031 44.828125 -46.332031 C 37.78125 -46.332031 31.765625 -43.792969 28.382812 -37.214844 C 27.347656 -42.007812 26.691406 -47.460938 23.683594 -47.460938 C 22.835938 -47.460938 21.804688 -47.082031 20.582031 -46.144531 C 15.320312 -42.382812 12.3125 -41.070312 4.511719 -38.53125 C 0.65625 -37.308594 1.316406 -33.832031 4.792969 -33.082031 C 6.953125 -32.703125 7.988281 -30.449219 7.988281 -24.246094 L 7.988281 -14.660156 C 7.988281 -7.613281 1.410156 -6.859375 1.972656 -3.195312 C 2.539062 0.09375 15.882812 0.375 18.609375 0.375 C 21.332031 0.375 34.394531 0.28125 34.679688 -3.195312 C 35.054688 -7.046875 28.851562 -7.425781 28.851562 -14.660156 C 28.851562 -19.265625 28.851562 -22.835938 28.851562 -25.75 C 29.039062 -31.292969 31.011719 -37.96875 36.183594 -37.96875 C 40.691406 -37.96875 40.316406 -30.449219 40.316406 -24.246094 L 40.316406 -14.660156 C 40.316406 -7.613281 41.351562 0.375 50.9375 0.375 C 53.753906 0.375 67.195312 0.28125 67.476562 -3.195312 C 67.757812 -7.046875 61.554688 -7.425781 61.554688 -14.660156 Z M 61.554688 -14.660156 "/></g></g></g><g fill="#466060" fill-opacity="1"><g transform="translate(158.741013, 110.616153)"><g><path d="M 61.839844 -24.90625 C 58.546875 -19.453125 55.070312 -13.25 45.203125 -12.5 C 30.449219 -12.5 23.589844 -26.3125 23.496094 -39.472656 C 23.308594 -50.65625 28.097656 -56.574219 33.363281 -57.515625 C 34.207031 -57.703125 34.960938 -57.703125 35.710938 -57.703125 C 40.976562 -57.703125 44.265625 -54.039062 44.359375 -46.613281 C 44.453125 -39.660156 47.082031 -34.867188 54.601562 -34.867188 C 60.242188 -34.867188 65.222656 -38.625 64.375 -45.863281 C 63.8125 -51.03125 57.234375 -63.339844 36.371094 -63.339844 C 35.242188 -63.339844 34.019531 -63.339844 32.796875 -63.246094 C 15.414062 -62.214844 1.410156 -49.527344 1.410156 -30.917969 C 1.410156 -11.464844 16.632812 1.597656 34.773438 1.597656 C 50.277344 1.597656 63.71875 -7.988281 67.289062 -22.835938 L 67.289062 -22.929688 C 67.851562 -25.28125 66.347656 -26.691406 64.65625 -26.691406 C 63.625 -26.691406 62.589844 -26.125 61.839844 -24.90625 Z M 61.839844 -24.90625 "/></g></g></g><g fill="#466060" fill-opacity="1"><g transform="translate(232.315814, 110.616153)"><g><path d="M 29.226562 -14.660156 C 29.226562 -25.46875 29.132812 -48.960938 29.320312 -53.472656 C 29.414062 -58.644531 30.074219 -65.316406 26.503906 -65.316406 C 25.75 -65.316406 24.808594 -64.9375 23.589844 -64.28125 C 16.445312 -60.242188 12.3125 -59.207031 4.511719 -56.667969 C 0.65625 -55.449219 1.316406 -51.875 4.792969 -51.21875 C 6.953125 -50.75 7.988281 -48.492188 7.988281 -42.289062 L 7.988281 -14.660156 C 7.988281 -7.613281 1.410156 -6.859375 1.972656 -3.195312 C 2.539062 0.09375 15.882812 0.375 18.609375 0.375 C 21.332031 0.375 34.773438 0.28125 35.054688 -3.195312 C 35.429688 -7.046875 29.226562 -7.425781 29.226562 -14.660156 Z M 29.226562 -14.660156 "/></g></g></g><g fill="#466060" fill-opacity="1"><g transform="translate(274.036877, 110.616153)"><g><path d="M 27.441406 -43.511719 C 32.046875 -43.511719 33.644531 -37.683594 33.738281 -33.925781 C 33.925781 -26.691406 30.167969 -22.742188 25.5625 -22.742188 C 24.808594 -22.742188 24.058594 -22.835938 23.308594 -22.929688 C 22.273438 -25.375 21.613281 -28.097656 21.425781 -30.917969 C 21.144531 -35.429688 23.023438 -43.136719 27.441406 -43.511719 Z M 49.902344 -19.078125 C 47.269531 -15.035156 42.761719 -12.40625 38.34375 -12.125 C 32.515625 -12.125 28.195312 -14.753906 25.09375 -19.640625 C 26.691406 -18.890625 29.039062 -18.515625 31.671875 -18.515625 C 40.785156 -18.515625 53.753906 -22.929688 52.0625 -33.832031 C 51.21875 -39.660156 45.109375 -46.613281 29.414062 -46.613281 C 15.128906 -46.613281 1.410156 -38.625 1.410156 -22.835938 C 1.410156 -8.738281 13.722656 0.847656 28.289062 0.847656 C 40.691406 0.847656 51.5 -6.203125 54.414062 -17.011719 C 54.882812 -18.890625 53.378906 -20.207031 51.875 -20.207031 C 51.125 -20.207031 50.371094 -19.828125 49.902344 -19.078125 Z M 49.902344 -19.078125 "/></g></g></g><g fill="#466060" fill-opacity="1"><g transform="translate(334.738634, 110.616153)"><g><path d="M 55.917969 -14.660156 C 55.257812 -21.613281 55.351562 -21.613281 54.976562 -26.125 C 53.660156 -42.949219 42.476562 -47.269531 30.449219 -47.269531 C 24.152344 -47.269531 13.816406 -46.425781 9.492188 -41.257812 C 6.015625 -37.027344 9.023438 -31.484375 13.722656 -31.484375 C 13.910156 -31.484375 14.003906 -31.484375 14.097656 -31.484375 C 22.460938 -31.953125 20.957031 -41.726562 27.628906 -41.820312 C 29.792969 -41.820312 31.292969 -41.070312 32.515625 -39.28125 C 34.300781 -35.804688 32.609375 -31.671875 25 -29.792969 C 13.0625 -26.878906 1.972656 -24.527344 1.410156 -13.625 C 0.941406 -4.605469 9.492188 0.847656 19.828125 0.847656 C 20.582031 0.847656 21.425781 0.847656 22.273438 0.75 C 30.824219 0.09375 34.585938 -7.140625 29.507812 -7.332031 C 24.714844 -7.519531 22.929688 -11.371094 22.554688 -13.4375 C 21.898438 -16.917969 22.648438 -20.582031 26.691406 -23.308594 C 30.074219 -25.65625 33.082031 -26.3125 34.488281 -29.320312 L 34.679688 -14.660156 C 34.679688 -7.613281 35.617188 0.375 45.296875 0.375 C 48.023438 0.375 61.460938 0.28125 61.742188 -3.195312 C 62.027344 -7.046875 55.917969 -7.425781 55.917969 -14.660156 Z M 55.917969 -14.660156 "/></g></g></g><g fill="#466060" fill-opacity="1"><g transform="translate(402.675612, 110.616153)"><g><path d="M 61.554688 -14.660156 C 61.648438 -25.46875 61.648438 -26.972656 61.648438 -31.484375 C 61.648438 -40.222656 54.789062 -46.332031 44.828125 -46.332031 C 37.78125 -46.332031 31.765625 -43.792969 28.382812 -37.214844 C 27.347656 -42.007812 26.691406 -47.460938 23.683594 -47.460938 C 22.835938 -47.460938 21.804688 -47.082031 20.582031 -46.144531 C 15.320312 -42.382812 12.3125 -41.070312 4.511719 -38.53125 C 0.65625 -37.308594 1.316406 -33.832031 4.792969 -33.082031 C 6.953125 -32.703125 7.988281 -30.449219 7.988281 -24.246094 L 7.988281 -14.660156 C 7.988281 -7.613281 1.410156 -6.859375 1.972656 -3.195312 C 2.539062 0.09375 15.882812 0.375 18.609375 0.375 C 21.332031 0.375 34.394531 0.28125 34.679688 -3.195312 C 35.054688 -7.046875 28.851562 -7.425781 28.851562 -14.660156 C 28.851562 -19.265625 28.851562 -22.835938 28.851562 -25.75 C 29.039062 -31.292969 31.011719 -37.96875 36.183594 -37.96875 C 40.691406 -37.96875 40.316406 -30.449219 40.316406 -24.246094 L 40.316406 -14.660156 C 40.316406 -7.613281 41.351562 0.375 50.9375 0.375 C 53.753906 0.375 67.195312 0.28125 67.476562 -3.195312 C 67.757812 -7.046875 61.554688 -7.425781 61.554688 -14.660156 Z M 61.554688 -14.660156 "/></g></g></g><g fill="#acbd81" fill-opacity="0.4"><g transform="translate(490.561946, 117.058961)"><g><path d="M 1.878906 -3.289062 C 2.445312 -0.46875 20.015625 0.1875 26.40625 0.28125 L 26.503906 0.28125 C 26.785156 0.28125 56.105469 0.28125 60.050781 -1.316406 C 63.339844 -2.820312 63.339844 -7.707031 63.339844 -10.714844 C 63.339844 -13.625 63.625 -19.921875 59.582031 -19.921875 C 54.695312 -19.921875 55.917969 -5.640625 46.050781 -5.640625 L 35.335938 -5.640625 C 31.953125 -5.921875 29.980469 -8.082031 29.980469 -14.847656 L 29.980469 -26.972656 L 30.167969 -26.972656 C 40.035156 -26.972656 37.78125 -17.386719 42.667969 -17.386719 C 46.332031 -17.386719 45.671875 -21.710938 45.671875 -24.714844 L 45.671875 -35.242188 C 45.671875 -38.25 46.332031 -42.667969 42.667969 -42.667969 C 37.78125 -42.667969 40.035156 -32.988281 30.167969 -32.988281 L 29.980469 -32.988281 L 29.980469 -47.082031 C 29.980469 -54.226562 32.234375 -56.199219 35.992188 -56.292969 L 43.230469 -56.292969 C 53.097656 -56.292969 51.875 -42.007812 56.761719 -42.007812 C 60.898438 -42.007812 60.523438 -48.304688 60.523438 -51.21875 C 60.523438 -54.226562 60.617188 -59.113281 57.234375 -60.617188 C 53.660156 -62.121094 37.121094 -62.214844 28.664062 -62.214844 C 26.878906 -62.214844 25.46875 -62.214844 24.621094 -62.214844 L 24.527344 -62.121094 C 18.984375 -62.121094 2.445312 -61.460938 1.878906 -58.546875 C 1.316406 -54.882812 7.894531 -54.132812 7.894531 -47.082031 L 7.894531 -14.847656 C 7.894531 -7.800781 1.316406 -7.046875 1.878906 -3.289062 Z M 1.878906 -3.289062 "/></g></g></g><g fill="#acbd81" fill-opacity="0.4"><g transform="translate(560.096305, 117.058961)"><g><path d="M 55.917969 -14.660156 C 55.257812 -21.613281 55.351562 -21.613281 54.976562 -26.125 C 53.660156 -42.949219 42.476562 -47.269531 30.449219 -47.269531 C 24.152344 -47.269531 13.816406 -46.425781 9.492188 -41.257812 C 6.015625 -37.027344 9.023438 -31.484375 13.722656 -31.484375 C 13.910156 -31.484375 14.003906 -31.484375 14.097656 -31.484375 C 22.460938 -31.953125 20.957031 -41.726562 27.628906 -41.820312 C 29.792969 -41.820312 31.292969 -41.070312 32.515625 -39.28125 C 34.300781 -35.804688 32.609375 -31.671875 25 -29.792969 C 13.0625 -26.878906 1.972656 -24.527344 1.410156 -13.625 C 0.941406 -4.605469 9.492188 0.847656 19.828125 0.847656 C 20.582031 0.847656 21.425781 0.847656 22.273438 0.75 C 30.824219 0.09375 34.585938 -7.140625 29.507812 -7.332031 C 24.714844 -7.519531 22.929688 -11.371094 22.554688 -13.4375 C 21.898438 -16.917969 22.648438 -20.582031 26.691406 -23.308594 C 30.074219 -25.65625 33.082031 -26.3125 34.488281 -29.320312 L 34.679688 -14.660156 C 34.679688 -7.613281 35.617188 0.375 45.296875 0.375 C 48.023438 0.375 61.460938 0.28125 61.742188 -3.195312 C 62.027344 -7.046875 55.917969 -7.425781 55.917969 -14.660156 Z M 55.917969 -14.660156 "/></g></g></g><g fill="#acbd81" fill-opacity="0.4"><g transform="translate(628.033279, 117.058961)"><g><path d="M 0.941406 -40.410156 L 0.941406 -38.25 C 0.941406 -37.214844 1.785156 -36.371094 2.820312 -36.371094 L 7.332031 -36.371094 C 7.332031 -31.578125 7.238281 -15.976562 7.332031 -13.722656 C 7.425781 -4.136719 13.722656 1.410156 24.152344 1.410156 C 29.132812 1.410156 34.585938 0.1875 37.96875 -3.664062 C 39.1875 -5.167969 37.96875 -7.238281 36.183594 -7.238281 C 35.898438 -7.238281 35.710938 -7.238281 35.429688 -7.140625 C 35.054688 -6.953125 34.585938 -6.953125 34.113281 -6.953125 C 28.664062 -7.425781 29.507812 -14.753906 29.507812 -21.050781 L 29.507812 -36.371094 L 37.214844 -36.371094 C 38.25 -36.371094 39.09375 -37.214844 39.09375 -38.25 L 39.09375 -40.410156 C 39.09375 -41.445312 38.25 -42.289062 37.214844 -42.289062 L 29.507812 -42.289062 L 29.507812 -58.265625 C 29.507812 -59.769531 28.289062 -60.617188 26.972656 -60.617188 C 26.21875 -60.617188 25.46875 -60.335938 24.90625 -59.582031 C 19.828125 -52.441406 11.652344 -42.855469 2.820312 -42.289062 C 1.785156 -42.289062 0.941406 -41.445312 0.941406 -40.410156 Z M 0.941406 -40.410156 "/></g></g></g><g fill="#acbd81" fill-opacity="0.4"><g transform="translate(672.855155, 117.058961)"><g><path d="M 43.417969 -27.722656 C 39.1875 -29.886719 29.792969 -34.207031 28.097656 -35.054688 C 25.1875 -36.371094 23.777344 -37.96875 23.777344 -39.847656 C 23.777344 -42.949219 27.253906 -43.699219 29.695312 -43.699219 C 32.515625 -43.699219 34.488281 -42.574219 36.085938 -39.753906 C 37.589844 -37.214844 38.71875 -32.703125 43.980469 -32.234375 C 44.265625 -32.234375 44.546875 -32.234375 44.828125 -32.234375 C 48.679688 -32.234375 50.75 -34.773438 50.464844 -37.496094 C 50.183594 -41.351562 44.171875 -46.519531 30.824219 -46.894531 C 22.179688 -46.894531 5.921875 -45.863281 4.136719 -34.679688 C 2.632812 -25.375 12.40625 -20.300781 16.164062 -18.703125 C 19.078125 -17.386719 24.152344 -14.941406 25.375 -14.378906 C 27.910156 -13.25 35.523438 -10.621094 35.523438 -6.765625 C 35.523438 -4.417969 32.988281 -2.253906 28.664062 -2.253906 C 22.648438 -2.253906 19.734375 -5.261719 17.292969 -10.527344 C 15.601562 -14.191406 13.0625 -17.199219 9.117188 -17.199219 C 8.644531 -17.199219 8.082031 -17.105469 7.519531 -17.011719 C 2.914062 -16.070312 0.75 -12.6875 1.597656 -8.835938 C 2.726562 -3.289062 11.746094 1.316406 25.375 1.316406 C 35.242188 1.316406 53.851562 -1.222656 54.226562 -14.378906 C 54.507812 -22.179688 46.613281 -26.125 43.417969 -27.722656 Z M 43.417969 -27.722656 "/></g></g></g><g fill="#acbd81" fill-opacity="1"><g transform="translate(486.408314, 112.905326)"><g><path d="M 1.878906 -3.289062 C 2.445312 -0.46875 20.015625 0.1875 26.40625 0.28125 L 26.503906 0.28125 C 26.785156 0.28125 56.105469 0.28125 60.050781 -1.316406 C 63.339844 -2.820312 63.339844 -7.707031 63.339844 -10.714844 C 63.339844 -13.625 63.625 -19.921875 59.582031 -19.921875 C 54.695312 -19.921875 55.917969 -5.640625 46.050781 -5.640625 L 35.335938 -5.640625 C 31.953125 -5.921875 29.980469 -8.082031 29.980469 -14.847656 L 29.980469 -26.972656 L 30.167969 -26.972656 C 40.035156 -26.972656 37.78125 -17.386719 42.667969 -17.386719 C 46.332031 -17.386719 45.671875 -21.710938 45.671875 -24.714844 L 45.671875 -35.242188 C 45.671875 -38.25 46.332031 -42.667969 42.667969 -42.667969 C 37.78125 -42.667969 40.035156 -32.988281 30.167969 -32.988281 L 29.980469 -32.988281 L 29.980469 -47.082031 C 29.980469 -54.226562 32.234375 -56.199219 35.992188 -56.292969 L 43.230469 -56.292969 C 53.097656 -56.292969 51.875 -42.007812 56.761719 -42.007812 C 60.898438 -42.007812 60.523438 -48.304688 60.523438 -51.21875 C 60.523438 -54.226562 60.617188 -59.113281 57.234375 -60.617188 C 53.660156 -62.121094 37.121094 -62.214844 28.664062 -62.214844 C 26.878906 -62.214844 25.46875 -62.214844 24.621094 -62.214844 L 24.527344 -62.121094 C 18.984375 -62.121094 2.445312 -61.460938 1.878906 -58.546875 C 1.316406 -54.882812 7.894531 -54.132812 7.894531 -47.082031 L 7.894531 -14.847656 C 7.894531 -7.800781 1.316406 -7.046875 1.878906 -3.289062 Z M 1.878906 -3.289062 "/></g></g></g><g fill="#acbd81" fill-opacity="1"><g transform="translate(555.942673, 112.905326)"><g><path d="M 55.917969 -14.660156 C 55.257812 -21.613281 55.351562 -21.613281 54.976562 -26.125 C 53.660156 -42.949219 42.476562 -47.269531 30.449219 -47.269531 C 24.152344 -47.269531 13.816406 -46.425781 9.492188 -41.257812 C 6.015625 -37.027344 9.023438 -31.484375 13.722656 -31.484375 C 13.910156 -31.484375 14.003906 -31.484375 14.097656 -31.484375 C 22.460938 -31.953125 20.957031 -41.726562 27.628906 -41.820312 C 29.792969 -41.820312 31.292969 -41.070312 32.515625 -39.28125 C 34.300781 -35.804688 32.609375 -31.671875 25 -29.792969 C 13.0625 -26.878906 1.972656 -24.527344 1.410156 -13.625 C 0.941406 -4.605469 9.492188 0.847656 19.828125 0.847656 C 20.582031 0.847656 21.425781 0.847656 22.273438 0.75 C 30.824219 0.09375 34.585938 -7.140625 29.507812 -7.332031 C 24.714844 -7.519531 22.929688 -11.371094 22.554688 -13.4375 C 21.898438 -16.917969 22.648438 -20.582031 26.691406 -23.308594 C 30.074219 -25.65625 33.082031 -26.3125 34.488281 -29.320312 L 34.679688 -14.660156 C 34.679688 -7.613281 35.617188 0.375 45.296875 0.375 C 48.023438 0.375 61.460938 0.28125 61.742188 -3.195312 C 62.027344 -7.046875 55.917969 -7.425781 55.917969 -14.660156 Z M 55.917969 -14.660156 "/></g></g></g><g fill="#acbd81" fill-opacity="1"><g transform="translate(623.879648, 112.905326)"><g><path d="M 0.941406 -40.410156 L 0.941406 -38.25 C 0.941406 -37.214844 1.785156 -36.371094 2.820312 -36.371094 L 7.332031 -36.371094 C 7.332031 -31.578125 7.238281 -15.976562 7.332031 -13.722656 C 7.425781 -4.136719 13.722656 1.410156 24.152344 1.410156 C 29.132812 1.410156 34.585938 0.1875 37.96875 -3.664062 C 39.1875 -5.167969 37.96875 -7.238281 36.183594 -7.238281 C 35.898438 -7.238281 35.710938 -7.238281 35.429688 -7.140625 C 35.054688 -6.953125 34.585938 -6.953125 34.113281 -6.953125 C 28.664062 -7.425781 29.507812 -14.753906 29.507812 -21.050781 L 29.507812 -36.371094 L 37.214844 -36.371094 C 38.25 -36.371094 39.09375 -37.214844 39.09375 -38.25 L 39.09375 -40.410156 C 39.09375 -41.445312 38.25 -42.289062 37.214844 -42.289062 L 29.507812 -42.289062 L 29.507812 -58.265625 C 29.507812 -59.769531 28.289062 -60.617188 26.972656 -60.617188 C 26.21875 -60.617188 25.46875 -60.335938 24.90625 -59.582031 C 19.828125 -52.441406 11.652344 -42.855469 2.820312 -42.289062 C 1.785156 -42.289062 0.941406 -41.445312 0.941406 -40.410156 Z M 0.941406 -40.410156 "/></g></g></g><g fill="#acbd81" fill-opacity="1"><g transform="translate(668.701523, 112.905326)"><g><path d="M 43.417969 -27.722656 C 39.1875 -29.886719 29.792969 -34.207031 28.097656 -35.054688 C 25.1875 -36.371094 23.777344 -37.96875 23.777344 -39.847656 C 23.777344 -42.949219 27.253906 -43.699219 29.695312 -43.699219 C 32.515625 -43.699219 34.488281 -42.574219 36.085938 -39.753906 C 37.589844 -37.214844 38.71875 -32.703125 43.980469 -32.234375 C 44.265625 -32.234375 44.546875 -32.234375 44.828125 -32.234375 C 48.679688 -32.234375 50.75 -34.773438 50.464844 -37.496094 C 50.183594 -41.351562 44.171875 -46.519531 30.824219 -46.894531 C 22.179688 -46.894531 5.921875 -45.863281 4.136719 -34.679688 C 2.632812 -25.375 12.40625 -20.300781 16.164062 -18.703125 C 19.078125 -17.386719 24.152344 -14.941406 25.375 -14.378906 C 27.910156 -13.25 35.523438 -10.621094 35.523438 -6.765625 C 35.523438 -4.417969 32.988281 -2.253906 28.664062 -2.253906 C 22.648438 -2.253906 19.734375 -5.261719 17.292969 -10.527344 C 15.601562 -14.191406 13.0625 -17.199219 9.117188 -17.199219 C 8.644531 -17.199219 8.082031 -17.105469 7.519531 -17.011719 C 2.914062 -16.070312 0.75 -12.6875 1.597656 -8.835938 C 2.726562 -3.289062 11.746094 1.316406 25.375 1.316406 C 35.242188 1.316406 53.851562 -1.222656 54.226562 -14.378906 C 54.507812 -22.179688 46.613281 -26.125 43.417969 -27.722656 Z M 43.417969 -27.722656 "/></g></g></g></svg>