<svg xmlns="http://www.w3.org/2000/svg" xmlns:xlink="http://www.w3.org/1999/xlink" width="1000" zoomAndPan="magnify" viewBox="0 0 750 149.999998" height="200" preserveAspectRatio="xMidYMid meet" version="1.0"><defs><g/><clipPath id="9bcacd074c"><path d="M 64 2 L 97 2 L 97 59 L 64 59 Z M 64 2 " clip-rule="nonzero"/></clipPath><clipPath id="e2adfbbc58"><path d="M -30.421875 26.816406 L 133.105469 -32.648438 L 192.566406 130.875 L 29.042969 190.339844 Z M -30.421875 26.816406 " clip-rule="nonzero"/></clipPath><clipPath id="9bcd0c39ad"><path d="M -30.421875 26.816406 L 133.105469 -32.648438 L 192.566406 130.875 L 29.042969 190.339844 Z M -30.421875 26.816406 " clip-rule="nonzero"/></clipPath><clipPath id="df991720f4"><path d="M -30.421875 26.816406 L 133.105469 -32.648438 L 192.566406 130.875 L 29.042969 190.339844 Z M -30.421875 26.816406 " clip-rule="nonzero"/></clipPath><clipPath id="3358ec7517"><path d="M 23 23 L 80 23 L 80 55 L 23 55 Z M 23 23 " clip-rule="nonzero"/></clipPath><clipPath id="b132a578d6"><path d="M -30.421875 26.816406 L 133.105469 -32.648438 L 192.566406 130.875 L 29.042969 190.339844 Z M -30.421875 26.816406 " clip-rule="nonzero"/></clipPath><clipPath id="81c024010c"><path d="M -30.421875 26.816406 L 133.105469 -32.648438 L 192.566406 130.875 L 29.042969 190.339844 Z M -30.421875 26.816406 " clip-rule="nonzero"/></clipPath><clipPath id="33bee6c2cc"><path d="M -30.421875 26.816406 L 133.105469 -32.648438 L 192.566406 130.875 L 29.042969 190.339844 Z M -30.421875 26.816406 " clip-rule="nonzero"/></clipPath><clipPath id="70ef831595"><path d="M 39 36 L 117 36 L 117 146 L 39 146 Z M 39 36 " clip-rule="nonzero"/></clipPath><clipPath id="122fffa0c4"><path d="M -30.421875 26.816406 L 133.105469 -32.648438 L 192.566406 130.875 L 29.042969 190.339844 Z M -30.421875 26.816406 " clip-rule="nonzero"/></clipPath><clipPath id="86fa7b1592"><path d="M -30.421875 26.816406 L 133.105469 -32.648438 L 192.566406 130.875 L 29.042969 190.339844 Z M -30.421875 26.816406 " clip-rule="nonzero"/></clipPath><clipPath id="0fe9fb8953"><path d="M -30.421875 26.816406 L 133.105469 -32.648438 L 192.566406 130.875 L 29.042969 190.339844 Z M -30.421875 26.816406 " clip-rule="nonzero"/></clipPath><clipPath id="69fee03a3e"><path d="M 78 58 L 110 58 L 110 74 L 78 74 Z M 78 58 " clip-rule="nonzero"/></clipPath><clipPath id="be652b93ec"><path d="M -30.421875 26.816406 L 133.105469 -32.648438 L 192.566406 130.875 L 29.042969 190.339844 Z M -30.421875 26.816406 " clip-rule="nonzero"/></clipPath><clipPath id="f2d3138c71"><path d="M -30.421875 26.816406 L 133.105469 -32.648438 L 192.566406 130.875 L 29.042969 190.339844 Z M -30.421875 26.816406 " clip-rule="nonzero"/></clipPath><clipPath id="3a165e34fa"><path d="M -30.421875 26.816406 L 133.105469 -32.648438 L 192.566406 130.875 L 29.042969 190.339844 Z M -30.421875 26.816406 " clip-rule="nonzero"/></clipPath><clipPath id="4f5e6ac98d"><path d="M 84 74 L 112 74 L 112 89 L 84 89 Z M 84 74 " clip-rule="nonzero"/></clipPath><clipPath id="81e250f2a7"><path d="M -30.421875 26.816406 L 133.105469 -32.648438 L 192.566406 130.875 L 29.042969 190.339844 Z M -30.421875 26.816406 " clip-rule="nonzero"/></clipPath><clipPath id="9e60a477ec"><path d="M -30.421875 26.816406 L 133.105469 -32.648438 L 192.566406 130.875 L 29.042969 190.339844 Z M -30.421875 26.816406 " clip-rule="nonzero"/></clipPath><clipPath id="0bbd3cf11a"><path d="M -30.421875 26.816406 L 133.105469 -32.648438 L 192.566406 130.875 L 29.042969 190.339844 Z M -30.421875 26.816406 " clip-rule="nonzero"/></clipPath><clipPath id="1abf456b3e"><path d="M 89 90 L 114 90 L 114 104 L 89 104 Z M 89 90 " clip-rule="nonzero"/></clipPath><clipPath id="5637d19f1a"><path d="M -30.421875 26.816406 L 133.105469 -32.648438 L 192.566406 130.875 L 29.042969 190.339844 Z M -30.421875 26.816406 " clip-rule="nonzero"/></clipPath><clipPath id="da6bae432c"><path d="M -30.421875 26.816406 L 133.105469 -32.648438 L 192.566406 130.875 L 29.042969 190.339844 Z M -30.421875 26.816406 " clip-rule="nonzero"/></clipPath><clipPath id="38ad8f9b12"><path d="M -30.421875 26.816406 L 133.105469 -32.648438 L 192.566406 130.875 L 29.042969 190.339844 Z M -30.421875 26.816406 " clip-rule="nonzero"/></clipPath><clipPath id="009c0b508d"><path d="M 95 107 L 116 107 L 116 119 L 95 119 Z M 95 107 " clip-rule="nonzero"/></clipPath><clipPath id="ab7a9b5d2b"><path d="M -30.421875 26.816406 L 133.105469 -32.648438 L 192.566406 130.875 L 29.042969 190.339844 Z M -30.421875 26.816406 " clip-rule="nonzero"/></clipPath><clipPath id="d31f12d1cf"><path d="M -30.421875 26.816406 L 133.105469 -32.648438 L 192.566406 130.875 L 29.042969 190.339844 Z M -30.421875 26.816406 " clip-rule="nonzero"/></clipPath><clipPath id="50ebbbdb45"><path d="M -30.421875 26.816406 L 133.105469 -32.648438 L 192.566406 130.875 L 29.042969 190.339844 Z M -30.421875 26.816406 " clip-rule="nonzero"/></clipPath></defs><g clip-path="url(#9bcacd074c)"><g clip-path="url(#e2adfbbc58)"><g clip-path="url(#9bcd0c39ad)"><g clip-path="url(#df991720f4)"><path fill="#acbd81" d="M 91.910156 3.25 C 96.816406 5.539062 98.941406 10.878906 90.246094 29.222656 C 81.550781 47.566406 67.605469 59.117188 65.597656 58.179688 C 63.589844 57.246094 63.875 39.183594 72.734375 20.777344 C 81.59375 2.375 87.167969 0.902344 91.910156 3.25 Z M 91.910156 3.25 " fill-opacity="1" fill-rule="nonzero"/></g></g></g></g><g clip-path="url(#3358ec7517)"><g clip-path="url(#b132a578d6)"><g clip-path="url(#81c024010c)"><g clip-path="url(#33bee6c2cc)"><path fill="#acbd81" d="M 24.210938 27.871094 C 21.921875 32.777344 23.722656 38.230469 42.167969 46.703125 C 60.617188 55.179688 78.726562 55.074219 79.660156 53.066406 C 80.597656 51.058594 68.78125 37.398438 50.167969 28.984375 C 31.554688 20.570312 26.335938 23.023438 24.210938 27.871094 Z M 24.210938 27.871094 " fill-opacity="1" fill-rule="nonzero"/></g></g></g></g><g clip-path="url(#70ef831595)"><g clip-path="url(#122fffa0c4)"><g clip-path="url(#86fa7b1592)"><g clip-path="url(#0fe9fb8953)"><path fill="#f47e5f" d="M 104.859375 144.253906 C 97.175781 147.046875 88.460938 144.476562 84.152344 137.714844 L 42.660156 75.039062 C 36.582031 65.957031 41.085938 53.394531 51.714844 49.527344 L 84.746094 37.515625 C 95.539062 33.59375 106.894531 40.386719 108.070312 51.253906 L 116.527344 125.9375 C 117.570312 133.890625 112.546875 141.460938 104.859375 144.253906 Z M 104.859375 144.253906 " fill-opacity="1" fill-rule="nonzero"/></g></g></g></g><g clip-path="url(#69fee03a3e)"><g clip-path="url(#be652b93ec)"><g clip-path="url(#f2d3138c71)"><g clip-path="url(#3a165e34fa)"><path fill="#f4e6c8" d="M 89.636719 65.734375 C 85.949219 67.8125 82.324219 70.058594 78.992188 73.121094 C 83.511719 73.328125 87.734375 72.71875 91.894531 71.945312 C 96.058594 71.171875 100.042969 69.910156 103.96875 68.484375 C 105.929688 67.769531 107.890625 67.054688 109.632812 66.238281 L 108.753906 58.226562 C 106.242188 58.953125 103.566406 59.742188 101.113281 60.632812 C 97.351562 62 93.546875 63.753906 89.636719 65.734375 Z M 89.636719 65.734375 " fill-opacity="0.5" fill-rule="nonzero"/></g></g></g></g><g clip-path="url(#4f5e6ac98d)"><g clip-path="url(#81e250f2a7)"><g clip-path="url(#9e60a477ec)"><g clip-path="url(#0bbd3cf11a)"><path fill="#f4e6c8" d="M 95.167969 80.941406 C 91.480469 83.023438 87.851562 85.265625 84.523438 88.328125 C 89.042969 88.535156 93.265625 87.925781 97.425781 87.15625 C 101.589844 86.382812 105.574219 85.117188 109.496094 83.691406 L 111.625 82.917969 L 110.628906 74.578125 C 109.320312 75.054688 107.953125 75.367188 106.644531 75.839844 C 102.882812 77.210938 99.015625 78.800781 95.167969 80.941406 Z M 95.167969 80.941406 " fill-opacity="0.5" fill-rule="nonzero"/></g></g></g></g><g clip-path="url(#1abf456b3e)"><g clip-path="url(#5637d19f1a)"><g clip-path="url(#da6bae432c)"><g clip-path="url(#38ad8f9b12)"><path fill="#f4e6c8" d="M 100.636719 95.984375 C 96.949219 98.066406 93.324219 100.3125 89.992188 103.371094 C 94.511719 103.582031 98.734375 102.972656 102.898438 102.199219 C 106.507812 101.441406 110.0625 100.519531 113.496094 99.269531 L 112.605469 90.707031 L 112.277344 90.824219 C 108.351562 92.253906 104.546875 94.007812 100.636719 95.984375 Z M 100.636719 95.984375 " fill-opacity="0.5" fill-rule="nonzero"/></g></g></g></g><g clip-path="url(#009c0b508d)"><g clip-path="url(#ab7a9b5d2b)"><g clip-path="url(#d31f12d1cf)"><g clip-path="url(#50ebbbdb45)"><path fill="#f4e6c8" d="M 95.523438 118.582031 C 100.042969 118.789062 104.265625 118.179688 108.425781 117.40625 C 110.835938 116.902344 113.019531 116.292969 115.371094 115.621094 L 114.375 107.28125 C 111.652344 108.457031 108.769531 109.691406 106.167969 111.191406 C 102.480469 113.273438 98.855469 115.519531 95.523438 118.582031 Z M 95.523438 118.582031 " fill-opacity="0.5" fill-rule="nonzero"/></g></g></g></g></svg>